The Goonies 
http://www.imdb.com/title/tt0089218/

Source  :

The.Goonies.1985.720p.BluRay.x264-SiNNERS


Info    :

ID                               : 1
Format                           : AVC
Format/Info                      : Advanced Video Codec
Format profile                   : Baseline@L2.0
Format settings, CABAC           : No
Format settings, ReFrames        : 3 frames
Codec ID                         : avc1
Codec ID/Info                    : Advanced Video Coding
Duration                         : 1h 53mn
Bit rate mode                    : Variable
Bit rate                         : 400 Kbps
Width                            : 464 pixels
Height                           : 192 pixels
Display aspect ratio             : 2.40:1
Frame rate mode                  : Variable
Frame rate                       : 23.976 fps
Minimum frame rate               : 23.810 fps
Maximum frame rate               : 24.390 fps
Color space                      : YUV
Chroma subsampling               : 4:2:0
Bit depth                        : 8 bits
Scan type                        : Progressive
Bits/(Pixel*Frame)               : 0.187
Stream size                      : 326 MiB (75%)
Writing library                  : x264 core 79


ID                               : 2
Format                           : AAC
Format/Info                      : Advanced Audio Codec
Format version                   : Version 4
Format profile                   : LC
Format settings, SBR             : No
Codec ID                         : 40
Duration                         : 1h 53mn
Bit rate mode                    : Variable
Bit rate                         : 128 Kbps
Maximum bit rate                 : 165 Kbps
Channel(s)                       : 2 channels
Channel positions                : Front: L R
Sampling rate                    : 48.0 KHz
Stream size                      : 104 MiB (24%)
Language                         : English

Screens :  
http://img339.imageshack.us/img339/4032/vlcsnap00001x.png 
http://img22.imageshack.us/img22/5083/vlcsnap00002b.png 
http://img526.imageshack.us/img526/6640/vlcsnap00003r.png 
http://img718.imageshack.us/img718/2807/vlcsnap00004y.png 
http://img229.imageshack.us/img229/5996/vlcsnap00005b.png


PLEASE LET THE TORRENT SEED AND SHARE IT WITH ALL YOU KNOW!

Let me know what I can do to be your trusted source of Handheld videos.

-OOO